<?xml version="1.0" encoding="UTF-8" standalone="no"?>
<!-- Created with Inkscape (http://www.inkscape.org/) -->
<svg xmlns:rdf="http://www.w3.org/1999/02/22-rdf-syntax-ns#" xmlns="http://www.w3.org/2000/svg" xmlns:cc="http://creativecommons.org/ns#" xmlns:xlink="http://www.w3.org/1999/xlink" xmlns:dc="http://purl.org/dc/elements/1.1/" xmlns:svg="http://www.w3.org/2000/svg" xmlns:inkscape="http://www.inkscape.org/namespaces/inkscape" xmlns:sodipodi="http://sodipodi.sourceforge.net/DTD/sodipodi-0.dtd" id="svg6827" viewBox="0 0 300 220" version="1.1" inkscape:version="0.91 r13725" xmlns:ns1="http://sozi.baierouge.fr">
  <defs id="defs6829">
    <linearGradient id="linearGradient7462" y2="1121.4" gradientUnits="userSpaceOnUse" x2="-38.796" gradientTransform="matrix(.34489 0 0 .48937 211.41 197.41)" y1="466.41" x1="-44.147">
      <stop id="stop3025" style="stop-color:#0197fd" offset="0"/>
      <stop id="stop3027" style="stop-color:#ffffff" offset="1"/>
    </linearGradient>
  </defs>
  <g id="layer1" transform="translate(0 -832.36)">
    <g id="g7451" transform="translate(-304.41 328.38)">
      <g id="g6846" transform="translate(108.57 78.571)">
        <path id="rect2985" style="fill:url(#linearGradient7462)" d="m195.83 425.41h300v220h-300z"/>
        <g id="g7433" style="fill:#eeeeee" transform="matrix(1.2724 0 0 1.2724 -55.858 -265.48)">
          <path id="path6852" style="fill:#eeeeee" d="m210 630.14c0-0.82164 1.0125-1.8046 2.25-2.1843 4.3617-1.3384 14.096-6.5277 19.007-10.133l4.9687-3.6474-6.8626-3.2652c-16.342-7.7755-22.819-19.213-17.497-30.899 3.5409-7.7747 12.58-15.036 27.16-18.653 15.451-3.8333 30.193-4.5681 44.95 0 23.527 7.3875 33.796 20.667 26.937 34.835-5.9148 12.218-24.746 20.391-48.239 20.935-11.197 0.25946-12.076 0.43326-16.5 3.2642-8.3528 5.345-18.855 8.8862-31.423 10.596-3.8352 0.52168-4.75 0.35841-4.75-0.84778zm22-5.2323c4.125-1.2915 9.93-3.9915 12.9-6 0 0 3.3294-2.9929 5.4001-3.6517 4.4497-0.38076 12.6-0.27029 12.6-0.27029 13.684-0.29355 20.755-1.7622 30.647-6.3656 14.172-6.5948 20.393-17.178 16.1-27.391-0.74381-1.7698-3.4775-5.1707-6.0748-7.5575-8.506-7.8164-20.649-11.966-37.647-12.867-38.555-2.0422-65.823 19.773-48.837 39.071 3.6203 4.1129 12.811 9.494 20.411 12.125 2.7659 0.95765 2.3736 1.5519-3.2169 5.4973-3.1929 2.2534-8.0443 6.2485-11.5 7.9895-5.9724 3.0089-6.0853 3.1309-2.2831 2.4669 2.2-0.38421 7.375-1.7553 11.5-3.0468z"/>
          <g id="g6865" style="fill:#eeeeee" transform="matrix(-1 0 0 1 757.56 -28.789)">
            <path id="path7437" style="fill:#eeeeee" d="m344.64 698.94c-0.38836-0.62838-0.23556-1.613 0.33954-2.1882 1.3439-1.3439 4.4771-0.17168 3.9304 1.4704-0.5566 1.6717-3.3864 2.1473-4.2699 0.71771zm3.0196-0.96824c-0.33992-0.55-1.0415-1-1.559-1-0.51754 0-0.94098 0.45-0.94098 1s0.70156 1 1.559 1c0.85746 0 1.2809-0.45 0.94098-1zm7.0294-0.35484c-2.0499-1.4989-1.7316-4.4886 0.63678-5.98 1.2078-0.76058 2.1018-0.68762 3.25 0.26526 3.633 3.0152-0.0909 8.4904-3.8868 5.7147zm4.4706-2.5382c0-2.42-2.5019-3.4121-4.013-1.5914-1.4688 1.7698-0.4492 3.4844 2.072 3.4844 1.2378 0 1.941-0.68585 1.941-1.893zm7-6.107c-1.774-2.2073-1.5091-3.7209-0.4433-5.7775 1.3583-2.621 5.334-2.9318 7.2433-1.0225 1.9015 1.9015 1.458 6.5916-0.73426 7.7648-2.7479 1.4706-3.9717 1.6406-6.0657-0.96482zm5.8-0.2c2.8437-2.8437 0.062-7.5258-3.752-6.3152-3.3761 1.0715-2.1311 7.5152 1.452 7.5152 0.605 0 1.64-0.54 2.3-1.2zm4.0058-9.1987c-4.8497-1.3056-7.3587-2.8329-9.6125-5.8513-0.77361-1.036-2.625-1.75-4.5381-1.75-5.1074 0-12.096-3.987-12.458-7.1075-0.23914-2.0601-1.1158-2.8511-4.1763-3.7681-3.6428-1.0914-8.722-2.5144-9.021-8.3012-0.26885-5.2027 6.9044-6.9008 8.4-7.8233 0.86853-0.53571 1.6-0.90375 1.6-2.845 0-4.526 4.4525-7.5671 13.538-9.2467 1.4908-0.27559 3.5769-0.28714 5.1764-0.87925 1.6726-0.61919 2.8465-1.8273 3.8156-2.485 5.1061-3.4651 12.471-4.9157 20.831-4.1029 8.5929 0.83543 9.003 0.83521 19.224-0.0103 9.4284-0.77995 17.626 1.0835 21.512 4.8898 1.5022 1.4715 4.6255 2.7906 8.3323 3.519 9.4829 1.8636 12.763 4.8683 10.948 10.027-0.81088 2.3039-0.54951 2.8874 2.0912 4.6682 5.2045 3.5098 4.3246 7.3982-2.3009 10.168-2.734 1.1428-3.1181 1.6516-2.1383 2.8321 3.4141 4.1138-2.4302 9.0146-12.118 10.162-2.9643 0.35108-5.3114 1.184-5.6228 1.9954-1.5898 4.1428-16.261 7.4561-24.775 5.595-2.6871-0.58741-5.6109-0.45032-8.9679 0.42049-6.1541 1.5964-13.562 1.5563-19.739-0.10668zm19.108-0.98897c4.1196-1.0686 6.7565-1.151 11.468-0.35833 8.2288 1.3845 16.907-0.38912 20.761-4.2429 2.0485-2.0485 4.1653-2.9441 8.1294-3.4393 9.5592-1.1943 13.701-5.2364 9.8026-9.8068-1.039-1.218-1.1209-1.2373 2.8944-3.0603 6.8031-3.0887 7.2224-5.2549 1.709-8.7856-3.2473-2.0795-3.2574-2.0206-2.251-3.8384 2.7-4.8771-0.36976-8.3728-9.9271-10.239-5.0114-0.34893-8.108-4.0903-11.804-6.03-3.3688-1.7455-5.8728-2.1669-12.696-2.1368-4.675 0.0206-11.746 0.91715-15.312 0.6674-17.005-1.1909-21.418-0.42732-24.708 0.98313-1.9362 0.83022-4.3684 2.4466-5.405 3.592-1.2411 1.3714-3.1124 2.0845-5.4797 2.0881-8.2598 0.0128-15.515 4.0732-14.897 8.3369 0.24134 1.6646-0.71644 2.7286-4.1926 4.6575-3.7056 2.0562-4.5607 3.0729-4.817 5.7272-0.26355 2.7291 0.19324 3.5342 2.9596 5.2166 1.7992 1.0942 4.527 2.2652 6.0617 2.6022 2.0524 0.45079 2.7904 1.2121 2.7904 2.8784 0 3.8424 6.4625 7.5755 13.114 7.5755 1.7872 0 3.2045 0.72668 3.8804 1.9896 3.0234 5.6492 16.981 8.4601 27.919 5.6226z"/>
          </g>
          <g id="g12706" style="fill:#eeeeee" transform="translate(140.71 -81.144)">
            <g id="g7382" style="fill:#eeeeee" transform="matrix(-.82607 0 0 .82607 303.1 85.765)">
              <path id="path7384" style="fill:#eeeeee" d="m170.68 840.86c0-1.2801 1.7905-2.7867 5.6058-4.717 5.5037-2.7846 14.394-9.8045 14.394-11.366 0-0.43639-3.441-1.3052-7.6467-1.9308-10.533-1.5666-12.289-2.6246-15.822-9.5351-4.2832-10.689-4.7923-26.186-0.18989-35.648 1.5629-3.1828 3.8129-6.4015 5-7.1525 4.4121-2.7914 16.807-4.0605 39.658-4.0605s35.246 1.2691 39.658 4.0605c1.1871 0.75103 3.4371 3.9697 5 7.1525 4.1281 10.726 4.4136 26.574-0.1899 35.648-1.8768 3.6709-4.0615 6.4236-5.7356 7.227-3.7261 1.7881-22.404 4.1592-32.949 4.1828l-8.7166 0.0195-5.2308 4.6457c-5.8232 5.1718-12.458 8.5294-22.567 11.42-8.5127 2.4344-10.269 2.4435-10.269 0.0532zm21.504-7.6645c2.9592-1.3999 7.5438-4.4722 10.188-6.8273l4.8078-4.282 16.5-1.1562c26.432-1.8522 28.474-2.8315 31.59-15.153 2.5435-10.057-0.0227-27.662-5.1893-31.726-3.6682-2.8854-17.563-4.5215-38.401-4.5215-20.885 0-34.731 1.6348-38.42 4.536-7.5465 5.936-7.9477 35.508-0.59711 42.16 1.1719 1.0606 5.8511 2.3666 12.202 3.4058 7.8588 1.2859 10.376 2.0726 10.616 3.3177 0.17835 0.92608-2.0994 4.0458-5.2654 7.2118-3.0688 3.0688-13.238 7.0608-11.457 8.5419 0.45824 0.3811 10.466-4.1076 13.425-5.5075z"/>
            </g>
          </g>
        </g>
      </g>
    </g>
  </g>
  <metadata>
    <rdf:RDF>
      <cc:Work>
        <dc:format>image/svg+xml</dc:format>
        <dc:type rdf:resource="http://purl.org/dc/dcmitype/StillImage"/>
        <cc:license rdf:resource="http://creativecommons.org/licenses/publicdomain/"/>
        <dc:publisher>
          <cc:Agent rdf:about="http://openclipart.org/">
            <dc:title>Openclipart</dc:title>
          </cc:Agent>
        </dc:publisher>
      </cc:Work>
      <cc:License rdf:about="http://creativecommons.org/licenses/publicdomain/">
        <cc:permits rdf:resource="http://creativecommons.org/ns#Reproduction"/>
        <cc:permits rdf:resource="http://creativecommons.org/ns#Distribution"/>
        <cc:permits rdf:resource="http://creativecommons.org/ns#DerivativeWorks"/>
      </cc:License>
    </rdf:RDF>
  </metadata>
</svg>
