<svg xmlns="http://www.w3.org/2000/svg" xmlns:xlink="http://www.w3.org/1999/xlink" viewBox="0 0 1366 633.08546"><defs><style>.a{fill:none;}.b{fill:#e8e8e8;}.c{fill:#fbf9ff;}.d{fill:#f5edff;}.e{fill:#fce0c0;}.f{clip-path:url(#a);}.g,.j{fill:url(#b);}.h{fill:url(#c);}.i,.j,.k{opacity:0.5;}.i{fill:url(#d);}</style><clipPath id="a"><rect class="a" x="-0.5" y="-0.5" width="1366" height="633.5"/></clipPath><pattern id="b" width="36.87604" height="21.29041" patternTransform="matrix(-1.00484, 0.26304, -0.32614, -0.95344, 377.59355, 543.77452)" patternUnits="userSpaceOnUse" viewBox="0 0 36.876 21.29"><rect class="a" width="36.87604" height="21.29041"/><polygon class="e" points="0 0 0.5 0 0 0.288 0 0"/><polygon class="e" points="4.597 0 0 2.654 0 2.077 3.598 0 4.597 0"/><polygon class="e" points="8.695 0 0 5.02 0 4.443 7.695 0 8.695 0"/><polygon class="e" points="12.792 0 0 7.385 0 6.808 11.793 0 12.792 0"/><polygon class="e" points="16.889 0 0 9.751 0 9.174 15.89 0 16.889 0"/><polygon class="e" points="20.986 0 0 12.116 0 11.54 19.987 0 20.986 0"/><polygon class="e" points="25.083 0 0 14.482 0 13.905 24.084 0 25.083 0"/><polygon class="e" points="29.181 0 0 16.848 0 16.271 28.182 0 29.181 0"/><polygon class="e" points="33.278 0 0 19.213 0 18.636 32.279 0 33.278 0"/><polygon class="e" points="36.876 0 36.876 0.289 0.5 21.29 0 21.29 0 21.002 36.376 0 36.876 0"/><polygon class="e" points="36.876 2.654 4.597 21.29 3.597 21.29 36.876 2.077 36.876 2.654"/><polygon class="e" points="36.876 5.02 8.695 21.29 7.695 21.29 36.876 4.443 36.876 5.02"/><polygon class="e" points="36.876 7.385 12.792 21.29 11.793 21.29 36.876 6.808 36.876 7.385"/><polygon class="e" points="36.876 9.751 16.889 21.29 15.89 21.29 36.876 9.174 36.876 9.751"/><polygon class="e" points="36.876 12.116 20.986 21.29 19.987 21.29 36.876 11.54 36.876 12.116"/><polygon class="e" points="36.876 14.482 25.083 21.29 24.084 21.29 36.876 13.905 36.876 14.482"/><polygon class="e" points="36.876 16.848 29.181 21.29 28.182 21.29 36.876 16.271 36.876 16.848"/><polygon class="e" points="36.876 19.213 33.278 21.29 32.279 21.29 36.876 18.636 36.876 19.213"/><polygon class="e" points="36.876 21.29 36.376 21.29 36.876 21.002 36.876 21.29"/></pattern><pattern id="c" width="36.8761" height="21.29047" patternTransform="matrix(-1.00484, 0.26304, -0.32614, -0.95344, 377.59355, 543.77452)" patternUnits="userSpaceOnUse" viewBox="0 0 36.876 21.29"><rect class="a" width="36.8761" height="21.29047"/><polygon class="c" points="36.126 0 0 20.858 0 19.358 33.529 0 36.126 0"/><polygon class="c" points="32.029 0 0 18.492 0 16.992 29.432 0 32.029 0"/><polygon class="c" points="23.834 0 0 13.761 0 12.261 21.237 0 23.834 0"/><polygon class="c" points="36.876 1.933 3.347 21.291 0.75 21.291 36.876 0.433 36.876 1.933"/><polygon class="c" points="36.876 4.298 7.445 21.291 4.847 21.291 36.876 2.799 36.876 4.298"/><polygon class="c" points="27.932 0 0 16.127 0 14.627 25.334 0 27.932 0"/><polygon class="c" points="36.876 9.029 15.639 21.291 13.042 21.291 36.876 7.53 36.876 9.029"/><polygon class="c" points="36.876 6.664 11.542 21.291 8.944 21.291 36.876 5.164 36.876 6.664"/><polygon class="c" points="36.876 20.858 36.126 21.291 33.528 21.291 36.876 19.358 36.876 20.858"/><polygon class="c" points="36.876 13.761 23.834 21.291 21.236 21.291 36.876 12.261 36.876 13.761"/><polygon class="c" points="36.876 16.127 27.932 21.291 25.334 21.291 36.876 14.627 36.876 16.127"/><polygon class="c" points="36.876 11.395 19.737 21.291 17.139 21.291 36.876 9.895 36.876 11.395"/><polygon class="c" points="19.737 0 0 11.395 0 9.895 17.139 0 19.737 0"/><polygon class="c" points="36.876 18.492 32.029 21.291 29.431 21.291 36.876 16.992 36.876 18.492"/><polygon class="c" points="11.542 0 0 6.664 0 5.164 8.945 0 11.542 0"/><polygon class="c" points="15.639 0 0 9.029 0 7.53 13.042 0 15.639 0"/><polygon class="c" points="7.445 0 0 4.298 0 2.799 4.848 0 7.445 0"/><polygon class="c" points="0.75 0 3.348 0 0 1.933 0 0.433 0.75 0"/><polygon class="d" points="0 0 0.75 0 0 0.433 0 0"/><polygon class="d" points="4.848 0 0 2.799 0 1.933 3.348 0 4.848 0"/><polygon class="d" points="8.945 0 0 5.164 0 4.298 7.445 0 8.945 0"/><polygon class="d" points="13.042 0 0 7.53 0 6.664 11.542 0 13.042 0"/><polygon class="d" points="17.139 0 0 9.895 0 9.029 15.639 0 17.139 0"/><polygon class="d" points="21.237 0 0 12.261 0 11.395 19.737 0 21.237 0"/><polygon class="d" points="25.334 0 0 14.627 0 13.761 23.834 0 25.334 0"/><polygon class="d" points="29.432 0 0 16.992 0 16.127 27.932 0 29.432 0"/><polygon class="d" points="33.529 0 0 19.358 0 18.492 32.029 0 33.529 0"/><polygon class="d" points="36.876 0 36.876 0.433 0.75 21.291 0 21.291 0 20.858 36.126 0 36.876 0"/><polygon class="d" points="36.876 2.799 4.847 21.291 3.347 21.291 36.876 1.933 36.876 2.799"/><polygon class="d" points="36.876 5.164 8.944 21.291 7.445 21.291 36.876 4.298 36.876 5.164"/><polygon class="d" points="36.876 7.53 13.042 21.291 11.542 21.291 36.876 6.664 36.876 7.53"/><polygon class="d" points="36.876 9.895 17.139 21.291 15.639 21.291 36.876 9.029 36.876 9.895"/><polygon class="d" points="36.876 12.261 21.236 21.291 19.737 21.291 36.876 11.395 36.876 12.261"/><polygon class="d" points="36.876 14.627 25.334 21.291 23.834 21.291 36.876 13.761 36.876 14.627"/><polygon class="d" points="36.876 16.992 29.431 21.291 27.932 21.291 36.876 16.127 36.876 16.992"/><polygon class="d" points="36.876 19.358 33.528 21.291 32.029 21.291 36.876 18.492 36.876 19.358"/><polygon class="d" points="36.876 21.291 36.126 21.291 36.876 20.858 36.876 21.291"/></pattern><pattern id="d" width="36.8761" height="21.29047" patternTransform="matrix(-1.00484, 0.26304, -0.32614, -0.95344, 377.59355, 543.77452)" patternUnits="userSpaceOnUse" viewBox="0 0 36.876 21.29"><rect class="a" width="36.8761" height="21.29047"/><polygon class="b" points="36.876 0 36.126 0 36.876 0.433 36.876 0"/><polygon class="b" points="32.028 0 36.876 2.799 36.876 1.933 33.528 0 32.028 0"/><polygon class="b" points="27.931 0 36.876 5.164 36.876 4.298 29.431 0 27.931 0"/><polygon class="b" points="23.834 0 36.876 7.53 36.876 6.664 25.334 0 23.834 0"/><polygon class="b" points="19.737 0 36.876 9.895 36.876 9.029 21.237 0 19.737 0"/><polygon class="b" points="15.639 0 36.876 12.261 36.876 11.395 17.139 0 15.639 0"/><polygon class="b" points="11.542 0 36.876 14.627 36.876 13.761 13.042 0 11.542 0"/><polygon class="b" points="7.444 0 36.876 16.992 36.876 16.126 8.944 0 7.444 0"/><polygon class="b" points="3.347 0 36.876 19.358 36.876 18.492 4.847 0 3.347 0"/><polygon class="b" points="0 0 0 0.433 36.126 21.29 36.876 21.29 36.876 20.857 0.75 0 0 0"/><polygon class="b" points="0 2.799 32.029 21.29 33.529 21.29 0 1.933 0 2.799"/><polygon class="b" points="0 5.164 27.932 21.29 29.431 21.29 0 4.298 0 5.164"/><polygon class="b" points="0 7.53 23.834 21.29 25.334 21.29 0 6.664 0 7.53"/><polygon class="b" points="0 9.895 19.737 21.29 21.237 21.29 0 9.029 0 9.895"/><polygon class="b" points="0 12.261 15.64 21.29 17.139 21.29 0 11.395 0 12.261"/><polygon class="b" points="0 14.627 11.542 21.29 13.042 21.29 0 13.761 0 14.627"/><polygon class="b" points="0 16.992 7.445 21.29 8.944 21.29 0 16.126 0 16.992"/><polygon class="b" points="0 19.358 3.348 21.29 4.847 21.29 0 18.492 0 19.358"/><polygon class="b" points="0 21.29 0.75 21.29 0 20.857 0 21.29"/></pattern></defs><title>header-ptn-01</title><g class="f"><rect class="a" x="-0.5" y="-0.5" width="1366" height="633.5"/><polygon class="g" points="-212 194.339 205 304.635 330 710.471 -212 491.292 -212 194.339"/><polygon class="h" points="-297 282.313 120 392.609 238 728.685 -297 579.266 -297 282.313"/><polygon class="i" points="-163 0 312 0 371 118.451 122 541.727 84 463.482 -154 689.732 -163 0"/><polygon class="j" points="1031 63.383 1031 332.43 1506 641 1506 -2.437 1031 -2.437 1031 63.383"/><polygon class="h" points="1175 39.488 1175 247.256 1649 485.545 1649 -11.341 1175 -11.341 1175 39.488"/><g class="k"><polygon class="i" points="1400 633 773 633 773 524.609 1198 289.664 1196.964 370.573 1392.501 253.521 1400 633"/></g></g></svg>